<svg xmlns="http://www.w3.org/2000/svg" xmlns:xlink="http://www.w3.org/1999/xlink" width="1920" zoomAndPan="magnify" viewBox="0 0 1440 809.999993" height="1080" preserveAspectRatio="xMidYMid meet" version="1.0"><defs><clipPath id="f209a5c120"><path d="M 104.03125 0 L 1336 0 L 1336 106 L 104.03125 106 Z M 104.03125 0 " clip-rule="nonzero"/></clipPath><clipPath id="0ed336a9c5"><path d="M 104.03125 352 L 1336 352 L 1336 458 L 104.03125 458 Z M 104.03125 352 " clip-rule="nonzero"/></clipPath><clipPath id="8f2af36324"><path d="M 104.03125 704 L 1336 704 L 1336 810 L 104.03125 810 Z M 104.03125 704 " clip-rule="nonzero"/></clipPath></defs><g clip-path="url(#f209a5c120)"><path fill="#ff8d08" d="M 1335.933594 53.039062 C 1335.933594 82.195312 1312.296875 105.832031 1283.140625 105.832031 L 156.851562 105.832031 C 127.691406 105.832031 104.054688 82.195312 104.054688 53.039062 C 104.054688 23.882812 127.691406 0.242188 156.851562 0.242188 L 1283.140625 0.242188 C 1312.296875 0.242188 1335.933594 23.882812 1335.933594 53.039062 Z M 1335.933594 53.039062 " fill-opacity="1" fill-rule="evenodd"/></g><g clip-path="url(#0ed336a9c5)"><path fill="#ff8d08" d="M 1335.933594 405.007812 C 1335.933594 434.164062 1312.296875 457.800781 1283.140625 457.800781 L 156.851562 457.800781 C 127.691406 457.800781 104.054688 434.164062 104.054688 405.007812 C 104.054688 375.851562 127.691406 352.210938 156.851562 352.210938 L 1283.140625 352.210938 C 1312.296875 352.210938 1335.933594 375.851562 1335.933594 405.007812 Z M 1335.933594 405.007812 " fill-opacity="1" fill-rule="evenodd"/></g><g clip-path="url(#8f2af36324)"><path fill="#ff8d08" d="M 1335.933594 756.976562 C 1335.933594 786.132812 1312.296875 809.769531 1283.140625 809.769531 L 156.851562 809.769531 C 127.691406 809.769531 104.054688 786.132812 104.054688 756.976562 C 104.054688 727.816406 127.691406 704.179688 156.851562 704.179688 L 1283.140625 704.179688 C 1312.296875 704.179688 1335.933594 727.816406 1335.933594 756.976562 Z M 1335.933594 756.976562 " fill-opacity="1" fill-rule="evenodd"/></g></svg>