<svg xmlns="http://www.w3.org/2000/svg" xmlns:xlink="http://www.w3.org/1999/xlink" width="1920" zoomAndPan="magnify" viewBox="0 0 1440 809.999993" height="1080" preserveAspectRatio="xMidYMid meet" version="1.0"><path fill="#fcfbfc" d="M 719.996094 420.15625 C 828.429688 420.15625 916.628906 305.074219 916.628906 196.648438 C 916.628906 88.226562 828.429688 0 719.996094 0 C 611.566406 0 523.355469 88.226562 523.355469 196.648438 C 523.375 305.0625 611.574219 420.15625 719.996094 420.15625 Z M 719.996094 420.15625 " fill-opacity="1" fill-rule="nonzero"/><path fill="#fcfbfc" d="M 867.613281 422.171875 C 829.472656 451.234375 781.890625 468.523438 730.347656 468.523438 L 709.644531 468.523438 C 658.09375 468.523438 610.503906 451.222656 572.371094 422.171875 C 447.828125 442.304688 352.722656 550.25 352.722656 680.464844 C 352.722656 751.996094 517.15625 810 719.996094 810 C 922.828125 810 1087.269531 751.996094 1087.269531 680.464844 C 1087.269531 550.25 992.15625 442.304688 867.613281 422.171875 Z M 867.613281 422.171875 " fill-opacity="1" fill-rule="nonzero"/></svg>